<?xml version="1.0" encoding="utf-8"?>
<!-- Generator: Adobe Illustrator 17.0.0, SVG Export Plug-In . SVG Version: 6.00 Build 0)  -->
<!DOCTYPE svg PUBLIC "-//W3C//DTD SVG 1.1//EN" "http://www.w3.org/Graphics/SVG/1.1/DTD/svg11.dtd">
<svg version="1.1" id="Layer_1" xmlns="http://www.w3.org/2000/svg" xmlns:xlink="http://www.w3.org/1999/xlink" x="0px" y="0px"
	 width="395.652px" height="81.42px" viewBox="0 0 395.652 81.42" enable-background="new 0 0 395.652 81.42" xml:space="preserve">
<linearGradient id="SVGID_1_" gradientUnits="userSpaceOnUse" x1="349.4839" y1="46.5904" x2="388.0083" y2="46.5904">
	<stop  offset="0" style="stop-color:#26AEE4"/>
	<stop  offset="1" style="stop-color:#00587B"/>
</linearGradient>
<path fill="url(#SVGID_1_)" d="M359.716,18.922h-10.233l27.971,27.926c-0.02,0.022-27.349,27.014-27.744,27.411
	c-0.006,0.002,10.76-0.034,10.76-0.034l27.538-27.15l-0.17-0.168"/>
<path fill="#002D73" d="M51.254,7.874c20.283-0.368,34.6,13.216,34.6,34.05c0,20.281-14.316,33.865-34.6,34.233
	c-20.01,0-34.325-13.584-34.325-33.865C16.929,21.457,31.245,7.874,51.254,7.874z M51.346,65.693
	c13.492,0,22.394-10.279,22.394-24.138c0-12.939-8.901-23.22-22.394-23.22c-13.4,0-22.299,10.28-22.299,23.22
	C29.047,55.414,37.946,65.693,51.346,65.693z"/>
<path fill="#002D73" d="M90.184,30.45h10.463v7.068h0.182c2.023-4.405,6.151-8.169,13.492-8.169
	c11.842,0,16.061,8.352,16.061,17.348v27.808h-11.014V52.206c0-4.869-0.363-12.944-8.072-12.944
	c-7.252,0-10.098,5.325-10.098,11.197v24.046H90.184V30.45z"/>
<path fill="#002D73" d="M137.206,9.525h25.607c17.07,0,33.039,10.463,33.039,32.491c0,22.209-18.815,32.488-34.417,32.488h-24.229
	V9.525z M157.399,64.041c14.496,0,26.336-6.24,26.336-22.024c0-15.786-10.277-22.028-24.41-22.028h-10.557v44.053H157.399z"/>
<path fill="#002D73" d="M209.991,56.334c0.732,6.516,5.689,10.462,11.838,10.462c5.509,0,9.086-2.57,11.842-5.965l7.89,5.965
	c-5.138,6.333-11.654,8.812-18.629,8.812c-13.309,0-23.956-9.271-23.956-23.128c0-13.86,10.648-23.13,23.956-23.13
	c12.298,0,20.652,8.629,20.652,23.954v3.03H209.991z M232.566,48.075c-0.09-6.427-4.314-10.466-11.197-10.466
	c-6.515,0-10.55,4.131-11.378,10.466H232.566z"/>
<path fill="#002D73" d="M300.756,3h-11.01v39.512c3.256-3.229,7.013-6.963,11.01-10.929V3z"/>
<linearGradient id="SVGID_2_" gradientUnits="userSpaceOnUse" x1="344.606" y1="46.605" x2="380.3736" y2="46.605">
	<stop  offset="0" style="stop-color:#85D2E0"/>
	<stop  offset="1" style="stop-color:#0379A7"/>
</linearGradient>
<path fill="url(#SVGID_2_)" d="M380.374,46.848l-27.973-27.926h-7.795l27.973,27.926c-0.02,0.022-0.041,0.041-0.062,0.059
	c-10.888,10.765-27.616,27.279-27.72,27.382l7.686-0.029c0.399-0.397,16.9-16.685,27.689-27.352h-0.384
	C379.806,46.889,380.354,46.869,380.374,46.848z"/>
<path fill="#002D73" d="M323.806,19.133c0,0-29.414,29.221-32.667,32.45c-6.157,6.108-8.195,8.183-10.754,10.191
	c-2.467,1.935-6.401,3.919-9.449,3.919c-8.079,0-12.94-6.331-12.94-13.214s4.861-13.218,12.94-13.218
	c2.936,0,5.783,1.744,8.352,4.404l7.619-7.617c-4.225-4.68-10.374-6.699-15.971-6.699c-13.309,0-23.954,9.27-23.954,23.13
	c0,13.856,10.646,23.128,23.954,23.128c3.609,0,10.242-1.543,14.972-5.315c0.902-0.719,2.261-1.999,3.839-3.556v7.769h11.01V55.589
	c0.559-0.553,1.101-1.089,1.676-1.66c7.069-7.009,35.146-34.726,35.276-34.858L323.806,19.133z"/>
<linearGradient id="SVGID_3_" gradientUnits="userSpaceOnUse" x1="119.2571" y1="32.9134" x2="162.2951" y2="32.9134" gradientTransform="matrix(-1 0 0 1 458.8604 0)">
	<stop  offset="0.1394" style="stop-color:#0189BD"/>
	<stop  offset="0.1437" style="stop-color:#0188BC"/>
	<stop  offset="0.301" style="stop-color:#0167A2"/>
	<stop  offset="0.4626" style="stop-color:#004E8D"/>
	<stop  offset="0.6295" style="stop-color:#003B7F"/>
	<stop  offset="0.8044" style="stop-color:#003176"/>
	<stop  offset="1" style="stop-color:#002D73"/>
</linearGradient>
<path fill="url(#SVGID_3_)" d="M323.939,18.922h14.915l-27.971,27.926c0.018,0.022-7.037,0.041-7.016,0.059h-7.531h-0.521
	L323.939,18.922z"/>
<linearGradient id="SVGID_4_" gradientUnits="userSpaceOnUse" x1="125.2564" y1="60.5972" x2="168.4653" y2="60.5972" gradientTransform="matrix(-1 0 0 1 458.8604 0)">
	<stop  offset="0" style="stop-color:#0189BD"/>
	<stop  offset="0.005" style="stop-color:#0188BC"/>
	<stop  offset="0.1878" style="stop-color:#0167A2"/>
	<stop  offset="0.3755" style="stop-color:#004E8D"/>
	<stop  offset="0.5695" style="stop-color:#003B7F"/>
	<stop  offset="0.7727" style="stop-color:#003176"/>
	<stop  offset="1" style="stop-color:#002D73"/>
</linearGradient>
<path fill="url(#SVGID_4_)" d="M295.816,46.906h0.521h14.833c10.788,10.667,27.287,26.955,27.685,27.352
	c0.008,0.002-7.268,0.029-7.268,0.029l-8.398-0.063l-27.542-27.15L295.816,46.906z"/>
<radialGradient id="SVGID_5_" cx="310.3139" cy="46.605" r="49.0669" gradientUnits="userSpaceOnUse">
	<stop  offset="0" style="stop-color:#20376C"/>
	<stop  offset="0.4599" style="stop-color:#0B4A7B"/>
	<stop  offset="0.9118" style="stop-color:#0189BD"/>
</radialGradient>
<path fill="url(#SVGID_5_)" d="M311.182,46.848l27.97-27.926h-7.269c0,0-27.933,27.967-27.911,27.984l27.42,27.352l7.566,0.029
	c-0.1-0.103-16.83-16.617-27.716-27.382C311.221,46.889,311.202,46.869,311.182,46.848z"/>
</svg>
